<?xml version="1.0" encoding="UTF-8" standalone="no"?>
<!-- Created with Inkscape (http://www.inkscape.org/) -->

<svg
   xmlns:dc="http://purl.org/dc/elements/1.1/"
   xmlns:cc="http://creativecommons.org/ns#"
   xmlns:rdf="http://www.w3.org/1999/02/22-rdf-syntax-ns#"
   xmlns:svg="http://www.w3.org/2000/svg"
   xmlns="http://www.w3.org/2000/svg"
   xmlns:sodipodi="http://sodipodi.sourceforge.net/DTD/sodipodi-0.dtd"
   xmlns:inkscape="http://www.inkscape.org/namespaces/inkscape"
   width="500"
   height="500"
   viewBox="0 0 132.29166 132.29167"
   version="1.1"
   id="svg872"
   inkscape:version="0.92.3 (2405546, 2018-03-11)"
   sodipodi:docname="onoff.svg">
  <defs
     id="defs866" />
  <sodipodi:namedview
     id="base"
     pagecolor="#ffffff"
     bordercolor="#666666"
     borderopacity="1.0"
     inkscape:pageopacity="0.0"
     inkscape:pageshadow="2"
     inkscape:zoom="1"
     inkscape:cx="228.39155"
     inkscape:cy="393.02647"
     inkscape:document-units="mm"
     inkscape:current-layer="layer1"
     showgrid="true"
     units="px"
     inkscape:lockguides="false"
     inkscape:window-width="1728"
     inkscape:window-height="1023"
     inkscape:window-x="2671"
     inkscape:window-y="663"
     inkscape:window-maximized="0" />
  <metadata
     id="metadata869">
    <rdf:RDF>
      <cc:Work
         rdf:about="">
        <dc:format>image/svg+xml</dc:format>
        <dc:type
           rdf:resource="http://purl.org/dc/dcmitype/StillImage" />
        <dc:title />
      </cc:Work>
    </rdf:RDF>
  </metadata>
  <g
     inkscape:label="Layer 1"
     inkscape:groupmode="layer"
     id="layer1"
     transform="translate(0,-164.70832)">
    <path
       style="opacity:0;fill:#449588;fill-opacity:1;stroke:none;stroke-width:1.60000002;stroke-linejoin:round;stroke-miterlimit:4;stroke-dasharray:none;stroke-opacity:1"
       id="path5122"
       d="m 58.421423,184.61411 c -0.01376,0.36033 -0.01757,0.71961 0.02694,1.07764 0.04678,0.29715 0.0764,0.59617 0.09241,0.89642 0.01167,0.26781 0.0117,0.53593 0.01204,0.80393 -0.0013,0.24397 0.0013,0.48792 0.0013,0.73189 -2.4e-4,0.19703 0.0013,0.39406 0.0016,0.59109 -5.29e-4,0.17011 0.0016,0.34021 2.65e-4,0.51032 0.0016,0.16413 7.93e-4,0.32824 -7.94e-4,0.49237 2.64e-4,0.20071 -0.0019,0.40146 -2.33e-4,0.60217 5.29e-4,0.21324 -0.0028,0.42647 -7.94e-4,0.63971 5.29e-4,0.22585 -7.94e-4,0.45169 -0.0013,0.67754 -0.0013,0.19553 0.0013,0.39104 0.0011,0.58656 0,0 -1.74932,0.89133 -1.74932,0.89133 v 0 c -4.5e-5,-0.19593 0.0026,-0.39183 0.0011,-0.58775 -5.29e-4,-0.22536 -0.0019,-0.45072 -0.0013,-0.67608 0.0019,-0.21297 -0.0013,-0.42594 -7.94e-4,-0.63892 0.0019,-0.20063 -5.29e-4,-0.4013 -2.33e-4,-0.60194 -0.0013,-0.16388 -0.0021,-0.32774 -7.93e-4,-0.49162 -0.0013,-0.17024 7.93e-4,-0.34045 2.64e-4,-0.51069 6.4e-5,-0.19765 0.0019,-0.39531 0.0019,-0.59296 2.57e-4,-0.24454 0.0038,-0.48906 0.0027,-0.7336 9.3e-5,-0.26552 7.94e-4,-0.5311 -0.007,-0.79653 -0.01132,-0.296 -0.03353,-0.59143 -0.07972,-0.88428 -0.05052,-0.36436 -0.04173,-0.72812 -0.04839,-1.09539 0,0 1.749097,-0.89121 1.749097,-0.89121 z"
       inkscape:connector-curvature="0" />
    <ellipse
       style="opacity:0.02000002;fill:#449588;fill-opacity:1;stroke:none;stroke-width:1.60000002;stroke-linejoin:round;stroke-miterlimit:4;stroke-dasharray:none;stroke-opacity:1"
       id="path5128"
       cx="85.460419"
       cy="262.47186"
       rx="21.166666"
       ry="21.034374" />
    <path
       style="opacity:1;fill:none;fill-opacity:1;stroke:#449588;stroke-width:15.77499962;stroke-linejoin:round;stroke-miterlimit:4;stroke-dasharray:none;stroke-opacity:1"
       id="path5132"
       sodipodi:type="arc"
       sodipodi:cx="-238.40628"
       sodipodi:cy="61.593262"
       sodipodi:rx="53.020119"
       sodipodi:ry="53.352486"
       sodipodi:start="0.41973723"
       sodipodi:end="5.8446096"
       d="m -189.98852,83.335494 a 53.020119,53.352486 0 0 1 -59.21917,30.491376 53.020119,53.352486 0 0 1 -42.21636,-51.731076 53.020119,53.352486 0 0 1 41.24046,-52.5221281 53.020119,53.352486 0 0 1 59.77947,29.3634411"
       sodipodi:open="true"
       transform="rotate(-90)" />
    <rect
       style="opacity:1;fill:#ffffff;fill-opacity:1;stroke:#000001;stroke-width:8.64900017;stroke-linecap:round;stroke-linejoin:round;stroke-miterlimit:4;stroke-dasharray:none;stroke-opacity:1"
       id="rect5148-3-6"
       width="22.435699"
       height="58.286728"
       x="50.033192"
       y="169.6962" />
  </g>
  <g
     inkscape:groupmode="layer"
     id="layer2"
     inkscape:label="Layer 2" />
</svg>
